<svg xmlns="http://www.w3.org/2000/svg" viewBox="0 0 64 64"><defs><linearGradient id="r" x1="0" y1="0" x2="1" y2="1"><stop offset="0" stop-color="#ff40ec"/><stop offset=".5" stop-color="#9a54ff"/><stop offset="1" stop-color="#40d6ff"/></linearGradient><linearGradient id="h" x1="0" y1="1" x2="0" y2="0"><stop offset="0" stop-color="#9a54ff"/><stop offset="1" stop-color="#ffb246"/></linearGradient><radialGradient id="b" cx=".5" cy=".45" r=".6"><stop offset="0" stop-color="#2a1748"/><stop offset="1" stop-color="#0b0716"/></radialGradient></defs><circle cx="32" cy="32" r="32" fill="url(#b)"/><path d="M19 22 C17 14 19 9 23 6 C22 12 24 16 27 19 Z" fill="url(#h)"/><path d="M45 22 C47 14 45 9 41 6 C42 12 40 16 37 19 Z" fill="url(#h)"/><ellipse cx="32" cy="34" rx="18" ry="16" fill="#0b0716" stroke="url(#r)" stroke-width="3"/><circle cx="25" cy="33" r="5" fill="#ffb246"/><circle cx="39" cy="33" r="5" fill="#ffb246"/><circle cx="25" cy="33" r="2.2" fill="#3a1606"/><circle cx="39" cy="33" r="2.2" fill="#3a1606"/><circle cx="26.3" cy="31.4" r="1.2" fill="#fff"/><circle cx="40.3" cy="31.4" r="1.2" fill="#fff"/><path d="M28 41 Q32 45 36 41" fill="none" stroke="#ffb246" stroke-width="2.4" stroke-linecap="round"/></svg>
